<?xml version="1.0" encoding="iso-8859-1"?>
<!-- Generator: Adobe Illustrator 19.0.0, SVG Export Plug-In . SVG Version: 6.00 Build 0)  -->
<svg version="1.1" id="Capa_1" xmlns="http://www.w3.org/2000/svg" xmlns:xlink="http://www.w3.org/1999/xlink" x="0px" y="0px"
	 viewBox="0 0 511 511" style="enable-background:new 0 0 511 511;" xml:space="preserve">
<g>
	<path d="M215.5,167c4.142,0,7.5-3.358,7.5-7.5v-8c0-4.142-3.358-7.5-7.5-7.5s-7.5,3.358-7.5,7.5v8
		C208,163.642,211.358,167,215.5,167z"/>
	<path d="M295.5,167c4.142,0,7.5-3.358,7.5-7.5v-8c0-4.142-3.358-7.5-7.5-7.5s-7.5,3.358-7.5,7.5v8
		C288,163.642,291.358,167,295.5,167z"/>
	<path d="M255.5,247c40.629,0,76.855-26.059,90.109-64.07C362,181.842,375,168.161,375,151.5s-13-30.342-29.391-31.43
		c-13.228-37.938-49.341-63.964-89.874-64.065c-1.825-0.139-3.63-0.083-5.395,0.153c-38.508,2.1-72.26,27.519-84.949,63.912
		C149,121.158,136,134.839,136,151.5s13,30.342,29.391,31.43C178.645,220.941,214.871,247,255.5,247z M151,151.5
		c0-9.098,7.402-16.5,16.5-16.5c0.443,0,1.07,0.09,1.795,0.194l0.482,0.068c3.719,0.515,7.25-1.795,8.26-5.413
		c7.229-25.909,26.864-45.972,51.336-54.447c-0.864,4.583-0.202,9.271,2.042,13.455C238.016,101.163,254.351,103,263.5,103
		c4.142,0,7.5-3.358,7.5-7.5s-3.358-7.5-7.5-7.5c-9.72,0-16.772-2.33-18.866-6.232c-1.454-2.71,0.009-5.441,0.705-6.49
		c0.611-0.92,2.621-3.475,6.354-4.179c1.264-0.06,2.532-0.099,3.807-0.099c35.941,0,67.795,24.2,77.463,58.85
		c1.009,3.618,4.538,5.93,8.26,5.413l0.482-0.068c0.726-0.104,1.353-0.194,1.795-0.194c9.098,0,16.5,7.402,16.5,16.5
		s-7.402,16.5-16.5,16.5c-0.443,0-1.07-0.09-1.795-0.194l-0.482-0.068c-3.723-0.519-7.25,1.794-8.26,5.413
		C323.295,207.8,291.441,232,255.5,232s-67.795-24.2-77.463-58.85c-0.915-3.278-3.898-5.485-7.218-5.485
		c-0.344,0-0.692,0.024-1.042,0.072l-0.482,0.068C168.57,167.91,167.943,168,167.5,168C158.402,168,151,160.598,151,151.5z"/>
	<path d="M398.176,410.449c5.706-15.93,8.824-33.081,8.824-50.949v-208C407,67.962,339.038,0,255.5,0S104,67.962,104,151.5v208
		c0,83.538,67.963,151.5,151.5,151.5c49.94,0,94.307-24.294,121.922-61.678c0.035-0.036,0.073-0.067,0.108-0.104
		c0.456-0.489,0.826-1.025,1.127-1.588c7.877-10.976,14.327-23.04,19.071-35.924C397.914,411.304,398.063,410.885,398.176,410.449z
		 M392,232.944c-0.369,0.887-0.575,1.86-0.575,2.88c0,37.107-20.11,68.475-63.19,98.51c-14.594-7.659-30.629-15.229-47.263-23.081
		c-2.822-1.333-5.659-2.672-8.504-4.019c48.232-23.96,96.285-52.594,119.533-93.494V232.944z M392,289.932V359.5
		c0,7.574-0.63,15.001-1.822,22.243c-9.411-14.614-26.265-27.279-47.35-39.411C365.145,325.865,381.473,308.479,392,289.932z
		 M119,151.5C119,76.233,180.234,15,255.5,15C330.767,15,392,76.233,392,151.5v5.12c-0.369,0.887-0.575,1.859-0.575,2.88
		c0,30.452-13.901,57.422-42.499,82.453c-25.808,22.589-60.138,40.771-93.718,57.031C186.849,265.876,119,226.357,119,159.5V151.5z
		 M160.946,260.966c32.549,25.58,73.764,45.036,113.622,63.851c55.197,26.056,107.371,50.688,108.822,82.391
		c-3.388,9.052-7.705,17.654-12.844,25.682c-21.942-17.708-54.888-33.263-89.575-49.638C205.05,347.414,119,306.793,119,231.5
		v-16.707C128.442,231.05,142.374,246.371,160.946,260.966z M255.5,496C180.234,496,119,434.767,119,359.5v-1.77
		c9.442,16.256,23.374,31.577,41.946,46.173c32.549,25.58,73.764,45.035,113.622,63.851c12.311,5.812,24.12,11.391,35.255,16.958
		C293.166,491.967,274.797,496,255.5,496L255.5,496z M326.2,476.227c-14.068-7.318-29.231-14.485-45.229-22.037
		C205.05,418.351,119,377.729,119,302.437v-15.643c9.442,16.256,23.374,31.578,41.946,46.173
		c32.549,25.58,73.764,45.036,113.622,63.851c34.243,16.164,66.732,31.507,87.188,48.262
		C351.814,457.399,339.785,467.968,326.2,476.227z"/>
	<path d="M255.5,207c11.904,0,22.864-3.876,29.319-10.369c2.92-2.938,2.906-7.687-0.031-10.606
		c-2.938-2.92-7.686-2.906-10.606,0.031c-2.726,2.742-9.254,5.944-18.681,5.944s-15.955-3.202-18.681-5.944
		c-2.92-2.938-7.669-2.952-10.606-0.031c-2.938,2.92-2.952,7.669-0.031,10.606C232.636,203.124,243.596,207,255.5,207z"/>
</g>
</svg>
